<svg data-v-423bf9ae="" xmlns="http://www.w3.org/2000/svg" viewBox="0 0 309 90" class="iconLeft"><!----><!----><!----><g data-v-423bf9ae="" id="fecaf681-e1db-49ca-b4ca-056ee624ab5f" fill="#282335" transform="matrix(5.016721991999024,0,0,5.016721991999024,107.39129839689465,-16.65551595929186)"><path d="M4.49 11.00Q5.14 11.00 5.69 11.34Q6.24 11.68 6.55 12.38L6.55 12.38L5.10 13.16Q4.96 12.57 4.59 12.24Q4.23 11.91 3.81 11.91L3.81 11.91Q3.25 11.91 2.81 12.26Q2.38 12.60 2.15 13.15Q1.92 13.69 1.92 14.29L1.92 14.29Q1.92 15.23 2.21 15.92Q2.51 16.60 3.02 16.96Q3.53 17.32 4.17 17.32L4.17 17.32Q5.46 17.32 6.65 15.85L6.65 15.85L6.97 16.13Q6.27 17.15 5.48 17.70Q4.69 18.26 3.60 18.26L3.60 18.26Q2.72 18.26 2.02 17.84Q1.32 17.43 0.92 16.68Q0.52 15.93 0.52 14.95L0.52 14.95Q0.52 13.87 0.99 12.97Q1.47 12.07 2.37 11.54Q3.28 11.00 4.49 11.00L4.49 11.00ZM14.32 10.91L14.32 16.79Q14.32 17.00 14.42 17.13Q14.52 17.26 14.70 17.26L14.70 17.26Q14.98 17.26 15.39 16.79L15.39 16.79L15.62 17.04Q15.27 17.75 14.76 17.97Q14.24 18.19 13.97 18.19L13.97 18.19Q13.45 18.19 13.18 17.95Q12.91 17.71 12.79 17.16Q12.67 16.60 12.67 15.60L12.67 15.60L12.67 15.18L12.61 14.21L12.56 14.21Q12.22 15.71 11.56 16.98Q10.89 18.26 9.81 18.26L9.81 18.26Q9.34 18.26 9.11 18.03Q8.88 17.79 8.81 17.40Q8.75 17.01 8.75 16.32L8.75 16.32L8.75 12.43Q8.75 12.19 8.65 12.06Q8.55 11.93 8.39 11.93L8.39 11.93Q8.05 11.93 7.67 12.43L7.67 12.43L7.43 12.17Q7.67 11.65 8.04 11.38Q8.40 11.12 8.67 11.05Q8.95 10.98 9.03 10.98L9.03 10.98Q9.79 10.98 10.11 11.39Q10.43 11.80 10.43 12.43L10.43 12.43L10.43 16.17Q10.43 16.42 10.49 16.56Q10.56 16.70 10.65 16.70L10.65 16.70Q11.16 16.70 11.59 15.69Q12.03 14.67 12.29 13.38Q12.56 12.08 12.56 11.49L12.56 11.49L14.32 10.91ZM24.63 10.96Q25.16 10.96 25.40 11.30Q25.65 11.65 25.65 12.32L25.65 12.32L25.65 16.80Q25.65 17.00 25.75 17.13Q25.84 17.26 26.01 17.26L26.01 17.26Q26.17 17.26 26.36 17.14Q26.54 17.01 26.71 16.77L26.71 16.77L26.96 17.04Q26.61 17.75 26.11 17.97Q25.61 18.19 25.33 18.19L25.33 18.19Q23.97 18.19 23.97 16.72L23.97 16.72L23.97 12.94Q23.97 12.80 23.91 12.68Q23.84 12.57 23.74 12.57L23.74 12.57Q23.45 12.57 23.13 13.24Q22.82 13.90 22.60 15.12Q22.39 16.34 22.39 17.91L22.39 17.91L20.69 18.27L20.69 12.94Q20.69 12.80 20.64 12.68Q20.58 12.57 20.48 12.57L20.48 12.57Q20.22 12.57 19.89 13.24Q19.56 13.92 19.33 15.13Q19.10 16.35 19.10 17.91L19.10 17.91L17.47 18.27L17.47 12.39Q17.47 12.17 17.37 12.03Q17.26 11.90 17.09 11.90L17.09 11.90Q16.93 11.90 16.74 12.04Q16.56 12.18 16.41 12.43L16.41 12.43L16.14 12.15Q16.49 11.42 17.01 11.19Q17.53 10.96 17.79 10.96L17.79 10.96Q19.11 10.96 19.11 12.43L19.11 12.43L19.11 14.10L19.17 14.10Q19.52 12.63 20.11 11.80Q20.71 10.96 21.35 10.96L21.35 10.96Q21.91 10.96 22.13 11.30Q22.36 11.63 22.36 12.32L22.36 12.32L22.36 14.10L22.44 14.10Q22.78 12.63 23.37 11.80Q23.97 10.96 24.63 10.96L24.63 10.96ZM30.16 6.31L29.67 9.62L28.78 9.90L28.21 6.97L30.16 6.31ZM30.11 11.09L30.11 16.80Q30.11 17.01 30.21 17.14Q30.31 17.26 30.48 17.26L30.48 17.26Q30.83 17.26 31.19 16.77L31.19 16.77L31.44 17.04Q31.14 17.60 30.65 17.89Q30.17 18.19 29.69 18.19L29.69 18.19Q28.42 18.19 28.42 16.72L28.42 16.72L28.42 11.68L30.11 11.09ZM37.77 10.96Q38.26 10.96 38.49 11.25Q38.71 11.54 38.77 11.92Q38.82 12.31 38.82 12.91L38.82 12.91L38.82 16.80Q38.82 16.97 38.93 17.12Q39.03 17.26 39.19 17.26L39.19 17.26Q39.40 17.26 39.56 17.13Q39.72 17.00 39.90 16.77L39.90 16.77L40.14 17.04Q39.89 17.53 39.45 17.86Q39.00 18.19 38.50 18.19L38.50 18.19Q37.83 18.19 37.49 17.80Q37.16 17.42 37.16 16.72L37.16 16.72L37.16 13.05Q37.16 12.85 37.11 12.71Q37.07 12.57 36.92 12.57L36.92 12.57Q36.44 12.57 35.95 13.59Q35.46 14.60 35.13 15.92Q34.79 17.23 34.79 17.91L34.79 17.91L33.15 18.27L33.15 12.39Q33.15 12.18 33.05 12.04Q32.96 11.90 32.77 11.90L32.77 11.90Q32.58 11.90 32.39 12.06Q32.20 12.22 32.07 12.43L32.07 12.43L31.82 12.15Q32.03 11.66 32.48 11.31Q32.93 10.96 33.45 10.96L33.45 10.96Q34.15 10.96 34.47 11.35Q34.79 11.73 34.79 12.42L34.79 12.42L34.79 15.12L34.85 15.12Q35.22 13.57 35.97 12.26Q36.72 10.96 37.77 10.96L37.77 10.96Z"></path></g><defs data-v-423bf9ae=""><linearGradient data-v-423bf9ae="" gradientTransform="rotate(25)" id="697551ae-c3d9-46cd-98de-15d69258722e" x1="0%" y1="0%" x2="100%" y2="0%"><stop data-v-423bf9ae="" offset="0%" style="stop-color: rgb(66, 47, 117); stop-opacity: 1;"></stop><stop data-v-423bf9ae="" offset="100%" style="stop-color: rgb(192, 179, 236); stop-opacity: 1;"></stop></linearGradient></defs><g data-v-423bf9ae="" id="8e52128e-906d-42d9-aed5-f15b1036f809" transform="matrix(2.8125,0,0,2.8125,0,0)" stroke="none" fill="url(#697551ae-c3d9-46cd-98de-15d69258722e)"><path d="M0 32h32V0H0v32zM2 2h2.981L16.01 21.103 27.04 2H30v28H2V2z"></path></g><!----></svg>